<?xml version="1.0" standalone="no"?>
<!DOCTYPE svg PUBLIC "-//W3C//DTD SVG 20010904//EN"
 "http://www.w3.org/TR/2001/REC-SVG-20010904/DTD/svg10.dtd">
<svg version="1.0" xmlns="http://www.w3.org/2000/svg"
 width="1280.000000pt" height="1216.000000pt" viewBox="0 0 1280.000000 1216.000000"
 preserveAspectRatio="xMidYMid meet">
<metadata>
Created by potrace 1.15, written by Peter Selinger 2001-2017
</metadata>
<g transform="translate(0.000000,1216.000000) scale(0.100000,-0.100000)"
fill="#000000" stroke="none">
<path d="M6170 12153 c-313 -16 -620 -68 -886 -149 -165 -49 -249 -83 -420
-168 -652 -324 -1081 -899 -1258 -1688 -65 -290 -91 -587 -83 -938 11 -424 46
-556 213 -796 l63 -91 -10 -99 c-5 -54 -10 -126 -12 -159 -3 -55 -3 -53 -4 15
-1 41 2 112 5 157 4 44 4 79 0 77 -5 -3 -8 7 -9 23 l-1 28 -8 -29 c-19 -62
-33 -406 -27 -666 13 -562 89 -1096 272 -1889 25 -106 47 -197 50 -202 7 -11
190 -139 450 -314 121 -82 221 -150 223 -151 11 -8 -56 -345 -76 -381 -7 -11
-19 -6 -64 31 l-55 45 -174 -250 c-96 -138 -179 -255 -185 -260 -9 -7 -664
-226 -1425 -475 -73 -24 -108 -40 -111 -52 -4 -14 -113 -40 -584 -141 -607
-129 -610 -130 -742 -215 -419 -269 -723 -756 -962 -1542 -27 -89 -76 -264
-110 -390 -119 -445 -151 -560 -196 -702 -25 -79 -44 -150 -42 -157 4 -21 364
-363 443 -422 87 -65 201 -132 292 -172 l71 -31 5570 0 c5526 0 5570 0 5633
20 143 44 272 126 496 313 87 73 188 156 226 185 37 30 67 61 67 71 0 9 -25
78 -56 152 -30 73 -98 249 -150 389 -288 771 -398 1045 -533 1325 -261 541
-514 868 -805 1040 -44 26 -101 55 -127 66 -27 10 -180 44 -341 74 -161 30
-303 58 -314 60 -17 4 -23 15 -28 48 l-7 44 -937 253 c-515 139 -942 256 -949
259 -6 3 -84 109 -174 236 l-163 230 -44 243 c-24 134 -43 244 -41 246 17 11
418 358 433 374 20 24 32 72 81 349 55 310 100 679 134 1103 31 389 43 582 39
625 -4 32 -5 27 -8 -25 -3 -59 -3 -62 -9 -25 -6 32 -9 19 -15 -68 -5 -59 -11
-106 -13 -103 -4 4 1 117 31 641 l13 230 53 84 c157 252 223 504 237 906 23
680 -194 1367 -595 1885 -80 102 -280 305 -378 383 -520 409 -1151 583 -1964
540z m-2403 -3900 c-3 -10 -5 -2 -5 17 0 19 2 27 5 18 2 -10 2 -26 0 -35z
m5000 -880 c-2 -21 -4 -6 -4 32 0 39 2 55 4 38 2 -18 2 -50 0 -70z m-10 -125
c-2 -13 -4 -5 -4 17 -1 22 1 32 4 23 2 -10 2 -28 0 -40z"/>
<path d="M8841 8144 c0 -11 3 -14 6 -6 3 7 2 16 -1 19 -3 4 -6 -2 -5 -13z"/>
<path d="M8832 8000 c0 -19 2 -27 5 -17 2 9 2 25 0 35 -3 9 -5 1 -5 -18z"/>
<path d="M8832 7940 c0 -14 2 -19 5 -12 2 6 2 18 0 25 -3 6 -5 1 -5 -13z"/>
<path d="M8823 7815 c0 -38 2 -53 4 -32 2 20 2 52 0 70 -2 17 -4 1 -4 -38z"/>
</g>
</svg>
